<svg id="執行縣市" xmlns="http://www.w3.org/2000/svg" xmlns:xlink="http://www.w3.org/1999/xlink" width="255" height="100" viewBox="0 0 255 100">
  <defs>
    <clipPath id="clip-path">
      <rect id="Rectangle_2" data-name="Rectangle 2" width="255" height="100" rx="10" transform="translate(486 822)" fill="#93cca3" stroke="#707070" stroke-width="1"/>
    </clipPath>
  </defs>
  <g id="Mask_Group_1" data-name="Mask Group 1" transform="translate(-486 -822)" clip-path="url(#clip-path)">
    <g id="tw_map" transform="translate(392.399 739)">
      <rect id="Rectangle_9" data-name="Rectangle 9" width="443.012" height="280.031" fill="#93cca3"/>
      <path id="Path_57" data-name="Path 57" d="M211.69,92.7a6.16,6.16,0,0,0-.978-.089,1.437,1.437,0,0,1-1.371-.933c-.333-.9-.593-1.815.215-2.652.311-.319.178-.682-.23-.882a1.526,1.526,0,0,0-.659-.1c-.689,0-1.356.215-2.045.274-.341,0-.667.044-.882-.282a2.712,2.712,0,0,0-2.667-1.126c-.607-.207-1.282,0-1.874-.311.037-.2.082-.407.126-.607a3.626,3.626,0,0,0,.1-.5.882.882,0,0,0-.444-.845c-.289-.148-.526.141-.741.385-.259.052-.407-.1-.548-.3a4.362,4.362,0,0,1-.415-.926,3.111,3.111,0,0,0-.882-1.059,3.941,3.941,0,0,0-3.763-1.074,6.349,6.349,0,0,0-4.652,4.9,1.6,1.6,0,0,1-1.341,1.482,8.408,8.408,0,0,1-.867.118,17.783,17.783,0,0,0-2.882.282,39.668,39.668,0,0,0-6.26,2.563,6.971,6.971,0,0,0-3.223,3.141c-1.119,2.082-2.334,4.112-3.541,6.141-.667,1.119-.6,1.3.659,1.393v.141c-1.185,1.756-2.26,3.623-4.3,4.586a2.107,2.107,0,0,0-.341.23,11.148,11.148,0,0,0-3.356,4.526,16.6,16.6,0,0,1-1.6,3.126c-1.141,1.482-2.185,3.111-3.252,4.682-3.126,4.6-6,9.357-9.023,14.031-1.259,1.956-2.637,3.837-3.771,5.875a11.852,11.852,0,0,0-.963,1.652,19.963,19.963,0,0,0-2.082,13.461,8.381,8.381,0,0,1,.111,3.786,11.331,11.331,0,0,1-1.319,2.808,5.609,5.609,0,0,0-.874,2.778,2.646,2.646,0,0,0-.052,1.274,12.725,12.725,0,0,1,.178,1.741,3.3,3.3,0,0,1-1.482,2.452,1.432,1.432,0,0,0,.259,2.593c.785.459,1.615.845,2.423,1.267l1.111.941a4.245,4.245,0,0,1,.963,2.882,16.846,16.846,0,0,0,2.237,8.519.57.57,0,0,1,.089.5,4.489,4.489,0,0,0,.4,3.452,16.824,16.824,0,0,0,4.082,5.045,15.557,15.557,0,0,0,5,2.763c2.348.919,4.275,2.311,5.141,4.823a1.381,1.381,0,0,0,.1.178,1.888,1.888,0,0,0,.037.2,54.015,54.015,0,0,1,1.956,5.608,1.348,1.348,0,0,1-.089,1.141c-.289.526-.585,1.052-.845,1.6a1.141,1.141,0,0,0,.052,1.274,2.675,2.675,0,0,1,.808,2.519,1.052,1.052,0,0,0,1.185,1.267,3.793,3.793,0,0,0,1.645-.585.741.741,0,0,1,1.022.081,3.015,3.015,0,0,1,.867,1.267,1.067,1.067,0,0,0,1.326.7c.333-.133.452-.667.281-1.252a1.169,1.169,0,0,0-.118-.341c-.1-.3-.185-.593-.289-.889a2,2,0,0,1,.437-2.067,6.731,6.731,0,0,1,.5-.526,3.045,3.045,0,0,0,.8-3.319,14.619,14.619,0,0,1-.659-2.652,19.264,19.264,0,0,1,.378-5.608,8.891,8.891,0,0,1,1.311-3.823,15.18,15.18,0,0,0,2.363-5.927,6.579,6.579,0,0,1,3-4.741,3.23,3.23,0,0,0,.859-.689c.348-.282.741-.541,1.037-.837a13.216,13.216,0,0,0,2.578-2.8.415.415,0,0,0,.185-.326,2.126,2.126,0,0,0,.378-1.274c0-.3-.126-.607-.156-.911a2.8,2.8,0,0,1,1.252-2.422c.645-.548,1.334-1.037,1.971-1.6a5.074,5.074,0,0,0,1.778-3.015,6.134,6.134,0,0,1,1.482-3.119,3.941,3.941,0,0,0,1.037-2.852,12.593,12.593,0,0,1,1.052-5.023c.919-2.415,1.971-4.778,2.689-7.26.052-.148.119-.289.163-.437q1.289-4.223,2.222-8.542a41.63,41.63,0,0,0,1.074-6.667,16.811,16.811,0,0,1,.074-2.963,3.934,3.934,0,0,1,1.237-1.622c.741-.7.778-1.267.081-1.985a2.526,2.526,0,0,1-.667-1.319.934.934,0,0,1,.659-1.208,1.645,1.645,0,0,0,1.208-1.482,8.845,8.845,0,0,0,0-1.082,1.889,1.889,0,0,1,1.1-1.978,4.445,4.445,0,0,0,2.045-2.311,16.877,16.877,0,0,0,1.208-5.186,1.726,1.726,0,0,1,1.193-1.7c1.067-.333,1.333-1.074.57-1.948v-.089a1.333,1.333,0,0,0,1.289-1.311,3.289,3.289,0,0,0-.363-1.733c.674.141.9-.052.741-.645l-.237-.489-.3-.533a11.689,11.689,0,0,1-1.882-6.941,7.964,7.964,0,0,1,3.341-5.778,22.594,22.594,0,0,1,1.934-1.193,3.7,3.7,0,0,0,.941-.637.579.579,0,1,0-.274-1.126Z" transform="translate(-47.805 -18.366)" fill="#85af8f"/>
    </g>
  </g>
  <text id="執行縣市-2" data-name="執行縣市" transform="translate(20 79)" fill="#fff" font-size="27" font-family="YuGothicUI-Regular, Yu Gothic UI"><tspan x="0" y="0">執行縣市</tspan></text>
</svg>
